<?xml version="1.0" standalone="no"?>
<!DOCTYPE svg PUBLIC "-//W3C//DTD SVG 20010904//EN"
 "http://www.w3.org/TR/2001/REC-SVG-20010904/DTD/svg10.dtd">
<svg version="1.0" xmlns="http://www.w3.org/2000/svg"
 width="1024.000000pt" height="870.000000pt" viewBox="0 0 1024.000000 870.000000"
 preserveAspectRatio="xMidYMid meet">
<metadata>
Created by potrace 1.16, written by Peter Selinger 2001-2019
</metadata>
<g transform="translate(0.000000,870.000000) scale(0.100000,-0.100000)"
fill="#000000" stroke="none">
<path d="M5184 7795 c-141 -22 -299 -81 -439 -165 -24 -14 -61 -19 -180 -23
-319 -13 -509 -80 -830 -292 -417 -275 -519 -391 -620 -705 -10 -30 -28 -71
-40 -91 -44 -69 -96 -181 -126 -271 -39 -117 -49 -261 -26 -393 19 -104 45
-196 62 -210 7 -6 11 -56 11 -140 0 -88 6 -151 17 -195 24 -91 88 -216 140
-273 38 -41 46 -57 59 -125 21 -102 51 -179 98 -250 38 -56 136 -158 172 -178
17 -9 17 -18 6 -114 -15 -140 3 -245 77 -430 73 -185 84 -227 94 -367 11 -139
35 -213 70 -213 25 0 26 4 6 34 -9 13 -20 63 -26 112 -23 208 -29 243 -58 324
-116 328 -114 321 -119 425 -3 61 2 149 12 225 18 140 13 217 -24 356 -26 102
-27 186 -1 199 137 72 197 123 94 80 -32 -14 -34 -14 -22 1 48 58 138 60 274
6 55 -22 135 -46 178 -53 81 -12 104 -29 90 -64 -11 -30 -88 -10 -235 61 -158
76 -217 84 -93 13 185 -107 275 -141 320 -121 21 10 24 8 30 -25 4 -20 22 -67
41 -105 19 -37 34 -78 34 -92 0 -13 -16 -74 -35 -134 -27 -89 -36 -139 -45
-252 -6 -78 -15 -163 -21 -188 -27 -115 -37 -196 -28 -219 13 -34 29 -19 29
27 0 21 11 84 25 140 13 56 29 165 35 242 8 101 19 164 38 222 36 113 36 192
-2 271 -16 32 -31 77 -34 98 -3 21 -11 41 -18 44 -8 3 -11 9 -8 15 10 17 -6
57 -29 73 -13 8 -58 21 -101 29 -43 9 -117 34 -165 56 -98 45 -163 52 -229 24
-42 -17 -95 -65 -123 -109 -23 -37 -24 -21 -4 77 27 127 111 364 152 426 46
70 197 224 278 283 33 24 130 88 215 142 l155 99 95 -6 c101 -6 274 -47 387
-92 100 -38 461 -218 531 -264 85 -54 372 -344 464 -467 42 -56 82 -119 87
-140 6 -21 11 -94 11 -164 0 -114 2 -130 26 -176 l25 -52 -30 -143 c-17 -79
-49 -235 -71 -348 -58 -288 -64 -314 -105 -445 -33 -105 -39 -118 -65 -127
-57 -19 -112 -117 -142 -251 -25 -114 -21 -292 9 -402 22 -81 72 -195 84 -195
12 0 12 -2 -15 66 -74 183 -74 480 0 644 29 64 70 120 88 120 17 0 35 35 55
108 16 59 16 59 17 -192 1 -160 6 -296 16 -376 9 -69 26 -207 39 -308 16 -125
20 -186 13 -190 -6 -4 -14 -40 -18 -81 -21 -239 -141 -490 -338 -709 -48 -52
-58 -72 -37 -72 21 0 165 154 216 230 108 162 149 257 183 420 l17 85 7 -195
c8 -217 -1 -380 -40 -705 -46 -386 -56 -514 -51 -660 5 -142 16 -199 43 -209
9 -3 45 12 81 34 118 71 180 68 361 -19 183 -87 268 -99 363 -51 51 27 65 54
73 146 14 171 64 305 168 449 138 191 168 266 168 420 0 136 -52 398 -107 542
-3 8 26 -10 65 -39 91 -68 241 -151 417 -231 149 -67 307 -152 418 -223 76
-49 77 -50 77 -29 0 43 -243 194 -491 304 -233 104 -423 216 -496 292 -17 19
-74 120 -126 224 -218 440 -243 554 -257 1175 -6 264 -13 405 -23 447 l-13 62
36 15 c50 20 179 125 233 189 59 69 94 127 128 209 15 38 53 111 83 162 70
118 121 234 141 317 18 78 21 575 4 726 -18 164 -76 307 -166 413 -18 20 -46
73 -63 116 -18 43 -48 104 -68 134 -62 93 -165 209 -199 225 -17 8 -34 24 -38
34 -3 11 -47 59 -98 107 -86 82 -92 90 -95 132 -5 88 -69 184 -184 278 -32 25
-78 75 -103 109 -92 130 -184 189 -410 264 -122 40 -293 72 -381 70 -27 -1
-85 -7 -130 -14z m284 -50 c102 -17 281 -71 380 -116 86 -38 130 -75 207 -173
37 -46 95 -107 130 -136 36 -28 78 -69 95 -90 33 -41 73 -125 68 -140 -2 -5
-25 6 -53 25 -46 32 -190 95 -216 95 -6 0 -30 17 -54 38 -44 39 -209 129 -322
176 -103 43 -229 75 -357 92 -66 8 -148 23 -181 34 -67 21 -194 45 -300 56
l-70 7 70 33 c144 68 316 111 445 113 36 1 107 -6 158 -14z m-599 -186 c73 -5
151 -14 174 -18 49 -9 52 -9 -128 -40 -119 -20 -281 -70 -425 -130 -93 -39
-320 -157 -340 -177 -27 -27 9 -15 143 47 519 240 850 296 1213 204 141 -36
414 -152 489 -208 18 -14 14 -14 -35 -5 -31 6 -131 8 -230 5 -192 -5 -310 -25
-462 -76 -93 -31 -348 -158 -348 -172 0 -13 -3 -14 116 42 152 71 319 125 465
150 107 18 151 20 314 16 124 -3 207 -10 240 -20 92 -27 176 -66 240 -112 87
-62 232 -200 267 -254 26 -42 37 -81 21 -81 -4 0 -50 20 -102 45 -142 66 -202
78 -346 73 -144 -6 -224 -30 -520 -158 -216 -93 -335 -136 -514 -186 -177 -49
-308 -93 -366 -122 l-50 -25 24 -16 c44 -29 287 -93 536 -141 340 -65 496
-122 652 -238 111 -83 275 -244 348 -341 56 -75 85 -103 85 -81 0 20 -166 213
-277 320 -239 233 -360 290 -793 376 -205 40 -463 97 -500 111 -20 7 51 31
320 108 124 36 260 78 302 94 70 27 83 29 130 21 29 -6 125 -21 213 -36 246
-39 380 -102 563 -264 142 -125 232 -266 232 -362 0 -43 -2 -48 -23 -48 -15 0
-66 38 -147 110 -140 123 -194 164 -210 158 -6 -2 39 -48 100 -103 234 -211
258 -227 292 -185 l18 22 0 -36 c0 -70 -30 -326 -50 -422 -25 -120 -81 -291
-116 -350 -34 -58 -106 -138 -150 -164 -19 -12 -38 -30 -44 -39 -15 -29 4 -74
41 -99 48 -33 124 -27 212 16 125 62 262 243 311 413 24 83 34 226 25 374 -39
644 -42 669 -86 717 -58 64 -100 -28 -127 -277 -7 -71 -14 -110 -15 -85 -5
173 -243 446 -496 571 -118 57 -210 82 -397 106 l-137 18 158 68 c391 169 561
183 796 64 108 -54 150 -55 157 -2 3 22 7 19 54 -38 28 -34 65 -84 84 -111 40
-59 103 -210 121 -292 20 -89 15 -311 -11 -514 -27 -203 -28 -223 -15 -230 14
-7 41 120 66 309 16 124 20 198 17 298 l-5 134 39 -68 c85 -153 97 -227 99
-648 2 -365 1 -373 -79 -534 -200 -402 -222 -440 -304 -527 -68 -71 -185 -164
-207 -164 -4 0 -17 13 -29 30 -15 20 -17 28 -7 24 37 -15 211 130 301 249 58
78 135 230 168 333 28 88 51 217 42 240 -11 28 -26 4 -26 -40 0 -100 -90 -333
-180 -467 -59 -88 -203 -228 -272 -266 l-57 -31 -57 58 c-78 79 -193 246 -345
501 -144 242 -219 349 -323 459 -39 41 -87 93 -106 114 -34 38 -32 38 35 -14
206 -157 349 -298 457 -451 34 -49 66 -89 71 -89 15 0 -52 113 -117 200 -169
225 -482 473 -826 654 -365 193 -628 286 -803 286 l-41 0 121 83 c67 45 219
163 338 262 119 99 251 206 293 237 165 122 322 201 492 244 157 41 355 43
355 4 0 -19 -65 -61 -150 -95 -38 -16 -77 -35 -85 -43 -13 -12 -11 -13 20 -7
127 26 260 105 260 154 0 13 -12 27 -32 38 -52 28 -253 23 -379 -10 -257 -67
-409 -158 -771 -459 -221 -184 -335 -269 -513 -382 -395 -252 -502 -330 -590
-429 l-46 -52 32 60 c103 191 217 316 484 530 225 181 292 241 284 250 -4 3
-31 -13 -60 -37 -30 -24 -136 -105 -235 -181 -209 -157 -326 -270 -412 -395
-77 -112 -300 -564 -308 -623 -6 -47 -4 -66 9 -61 4 1 7 1 7 0 0 -2 -7 -39
-15 -83 -19 -104 -18 -203 1 -290 40 -184 45 -221 39 -284 l-7 -63 -50 48
c-89 87 -162 210 -194 325 -28 98 -25 305 6 429 51 212 140 413 289 649 89
144 109 201 43 125 -59 -67 -148 -209 -220 -352 -113 -222 -169 -406 -180
-590 l-7 -106 -44 67 c-70 108 -103 218 -109 363 -6 146 9 254 50 384 34 107
60 160 182 379 82 146 102 201 51 137 -52 -66 -162 -248 -211 -351 -29 -61
-65 -159 -81 -218 l-29 -108 -17 73 c-44 189 -44 296 0 448 75 261 280 536
521 699 31 21 109 69 172 106 93 56 250 155 269 172 2 1 2 6 -2 9 -9 9 -365
-187 -472 -260 -49 -33 -136 -106 -192 -162 -108 -108 -111 -106 -42 26 75
145 167 233 429 414 317 219 483 294 730 331 172 27 278 30 469 14z m1810
-1336 c21 -54 30 -120 40 -298 6 -99 16 -241 22 -315 15 -177 7 -355 -20 -440
-62 -197 -245 -382 -394 -397 -47 -5 -56 -3 -83 21 l-29 27 30 22 c143 107
212 221 271 447 34 132 51 244 69 465 8 105 20 233 26 285 11 100 37 210 49
210 4 0 13 -12 19 -27z m-3182 -975 c-3 -8 -6 -5 -6 6 -1 11 2 17 5 13 3 -3 4
-12 1 -19z m2649 -543 c30 -44 67 -98 83 -120 29 -39 30 -44 40 -215 13 -206
27 -529 41 -905 13 -336 45 -792 70 -990 37 -292 103 -593 154 -710 22 -49 28
-56 41 -45 34 29 4 238 -69 481 -45 149 -61 189 -75 189 -23 0 -77 687 -91
1155 -6 193 -12 375 -15 405 -3 30 -10 150 -15 265 -6 116 -13 228 -16 250
l-6 40 34 -36 c19 -20 53 -48 74 -62 40 -25 47 -40 76 -162 5 -22 13 -238 18
-480 9 -455 14 -506 60 -685 32 -125 79 -241 184 -451 145 -290 198 -443 241
-693 37 -215 5 -334 -141 -531 -36 -49 -79 -115 -95 -145 -28 -55 -28 -55 -29
-21 0 18 16 128 36 245 34 195 36 222 31 351 -7 165 -31 278 -106 500 -66 194
-116 361 -135 455 -8 41 -24 199 -36 350 -11 151 -27 352 -35 445 -7 94 -17
231 -20 305 -7 156 -13 196 -26 183 -11 -11 3 -345 26 -628 8 -99 22 -279 30
-399 9 -122 25 -261 36 -313 11 -52 60 -214 109 -362 116 -348 133 -434 127
-611 -3 -81 -16 -195 -32 -285 -15 -82 -30 -206 -35 -275 -5 -69 -13 -156 -19
-195 -6 -38 -14 -96 -17 -128 -5 -56 -7 -59 -42 -75 -44 -19 -132 -20 -187 -3
-22 7 -94 41 -160 74 -115 59 -123 61 -195 62 -84 0 -162 -29 -211 -79 l-26
-26 -7 46 c-14 108 -1 330 39 649 79 624 78 894 -6 1521 -69 522 -62 755 37
1244 25 124 53 271 63 328 l17 103 61 -56 c134 -121 155 -249 93 -577 -12 -62
-28 -153 -36 -203 -19 -116 -31 -480 -16 -489 11 -7 14 17 32 274 6 85 22 214
36 285 63 330 66 348 61 440 -8 140 -32 192 -140 300 -104 105 -118 128 -123
207 -2 32 -6 85 -8 119 l-4 60 85 -148 c47 -81 109 -184 139 -228z m339 -2521
c41 -154 83 -379 72 -390 -8 -8 -57 171 -86 311 -30 146 -47 264 -37 254 3 -3
26 -81 51 -175z"/>
<path d="M5966 4343 c-22 -70 -40 -288 -39 -478 0 -311 31 -563 122 -1015 77
-379 102 -569 116 -880 13 -274 35 -689 41 -752 10 -116 47 -130 89 -33 45
101 66 202 72 346 6 146 -4 234 -53 444 -14 61 -43 189 -65 284 -38 169 -44
189 -53 180 -7 -7 24 -181 65 -357 67 -293 82 -400 75 -537 -6 -132 -22 -213
-64 -320 l-26 -70 -13 155 c-6 85 -16 314 -22 509 -6 194 -13 370 -16 390 -2
20 -9 83 -16 141 -14 136 -52 369 -89 544 -44 206 -77 401 -100 591 -28 222
-37 584 -20 746 11 111 10 157 -4 112z"/>
<path d="M4431 5199 c-15 -45 -14 -143 3 -184 14 -32 52 -63 64 -51 3 3 -5 17
-17 30 -31 33 -44 106 -31 175 12 66 12 61 1 61 -5 0 -14 -14 -20 -31z"/>
<path d="M5115 5205 c-27 -8 -99 -30 -159 -50 -82 -27 -137 -38 -223 -45 -125
-10 -158 -23 -169 -66 -15 -59 70 -113 157 -100 27 4 89 32 159 71 152 86 223
110 325 110 72 0 88 -4 155 -36 41 -20 106 -57 144 -83 38 -25 70 -46 72 -46
29 0 -103 129 -196 192 -65 43 -138 69 -193 67 -12 0 -44 -6 -72 -14z m155
-35 c20 -5 45 -16 55 -24 17 -13 13 -13 -30 0 -35 11 -75 14 -135 11 -82 -5
-84 -4 -40 8 56 16 105 18 150 5z m-340 -85 c-137 -73 -187 -96 -224 -102 -61
-10 -128 32 -107 66 6 8 49 16 123 22 67 5 149 19 194 33 109 33 109 32 14
-19z"/>
<path d="M4905 4931 c-43 -19 -104 -81 -129 -130 -36 -68 -4 -70 42 -2 44 65
96 99 165 111 91 14 145 -3 360 -119 54 -30 101 -51 104 -48 6 7 -167 121
-232 154 -105 54 -236 68 -310 34z"/>
<path d="M3786 4914 c-77 -24 -144 -73 -172 -126 -29 -56 -7 -52 48 9 58 62
125 93 207 93 88 0 135 -16 192 -68 56 -50 70 -51 35 -3 -34 46 -83 79 -140
96 -61 18 -107 18 -170 -1z"/>
<path d="M4960 4807 c-66 -15 -89 -27 -154 -78 -27 -22 -52 -39 -56 -39 -16 0
-20 -34 -6 -48 16 -16 57 -8 51 11 -5 13 85 79 123 91 18 6 22 4 22 -16 0 -91
132 -154 208 -99 31 22 59 82 47 101 -9 15 -5 13 78 -25 42 -19 97 -38 122
-42 27 -3 41 -9 34 -13 -8 -6 -5 -11 10 -19 25 -14 146 -10 146 4 0 6 -29 13
-65 16 -36 3 -55 6 -42 7 32 3 92 29 92 41 0 5 -31 7 -79 4 -74 -5 -82 -4
-162 32 -183 81 -263 96 -369 72z m192 -53 c25 -5 26 -7 16 -37 -12 -39 -52
-77 -79 -77 -77 0 -151 112 -81 123 27 4 94 0 144 -9z"/>
<path d="M3725 4782 c-59 -28 -155 -91 -155 -102 0 -21 59 -8 110 25 30 19 58
35 63 35 4 0 7 -13 7 -29 0 -38 41 -86 87 -102 71 -23 153 26 153 92 0 16 4
29 8 29 5 0 38 -18 75 -40 67 -40 87 -48 87 -31 0 17 -85 83 -140 109 -75 36
-233 43 -295 14z m233 -41 c11 -7 11 -14 -1 -44 -19 -44 -49 -61 -92 -53 -49
10 -101 76 -78 99 9 10 156 8 171 -2z"/>
<path d="M3635 4651 c-11 -19 14 -49 60 -71 50 -24 75 -18 35 9 -13 9 -39 29
-56 44 -19 16 -35 23 -39 18z"/>
<path d="M4102 4555 c-15 -33 -82 -80 -143 -100 -51 -17 -65 -35 -26 -35 23 0
111 40 137 62 26 22 60 70 60 84 0 22 -16 16 -28 -11z"/>
<path d="M4810 4565 c0 -26 68 -92 118 -113 51 -22 134 -32 142 -18 3 5 -20
14 -50 20 -67 14 -142 56 -172 96 -24 33 -38 38 -38 15z"/>
<path d="M4598 4079 c-43 -16 -33 -27 20 -21 45 4 50 2 80 -32 27 -31 32 -45
32 -88 0 -48 -3 -54 -47 -94 -53 -49 -52 -66 4 -37 70 36 99 109 73 178 -8 20
-7 25 3 19 30 -17 64 -55 127 -144 65 -92 135 -166 211 -223 41 -31 49 -33 49
-13 0 8 -21 30 -48 49 -68 50 -150 140 -211 230 -46 69 -117 137 -143 137 -5
0 -21 9 -36 20 -34 25 -79 32 -114 19z"/>
<path d="M4024 4005 c-7 -19 -14 -38 -14 -43 0 -5 -11 -18 -25 -30 -31 -27
-78 -120 -110 -218 -27 -84 -29 -94 -16 -94 4 0 27 48 50 108 51 131 90 206
91 176 0 -30 38 -74 77 -91 19 -7 53 -31 76 -52 65 -59 101 -74 165 -68 45 5
65 14 115 53 70 54 113 74 161 74 38 0 57 17 35 31 -19 12 -92 11 -123 -1 -13
-5 -50 -31 -80 -59 -89 -80 -153 -81 -241 -1 -29 27 -75 58 -100 69 l-47 21 5
52 c3 29 9 65 13 81 9 40 -14 34 -32 -8z"/>
<path d="M3589 3793 c-1 -4 -3 -71 -4 -148 -1 -108 -7 -163 -25 -240 -32 -131
-32 -274 -3 -395 30 -122 32 -262 4 -365 -31 -115 -31 -247 1 -343 l24 -72
-41 -53 c-103 -131 -282 -247 -590 -382 -252 -111 -402 -199 -553 -325 -84
-71 -87 -100 -4 -39 190 139 342 224 562 316 320 134 506 252 601 384 l43 59
15 -28 c8 -15 24 -40 36 -57 12 -16 30 -55 40 -85 47 -149 161 -296 272 -351
94 -47 314 -252 364 -339 51 -90 70 -71 25 25 -28 61 -105 146 -222 246 -104
89 -166 179 -207 298 -56 163 -47 312 29 450 22 40 32 67 26 73 -13 13 -53
-40 -86 -112 -75 -162 -55 -387 49 -563 l35 -58 -45 37 c-91 74 -175 212 -211
344 -26 100 -23 255 9 430 17 92 24 147 17 154 -12 12 -13 9 -51 -149 -18 -75
-33 -172 -36 -229 -6 -90 -7 -96 -19 -73 -8 14 -26 67 -40 117 -34 119 -30
209 20 403 31 119 36 155 36 250 0 115 -6 157 -21 157 -5 0 -9 -38 -9 -84 0
-46 -3 -99 -7 -117 l-7 -34 -7 45 c-4 25 -15 95 -25 157 l-17 111 26 144 c15
78 29 164 33 190 7 54 -13 245 -27 254 -5 3 -10 2 -10 -3z"/>
<path d="M4570 3750 c0 -21 63 -79 117 -107 32 -17 109 -47 171 -68 122 -40
176 -74 223 -140 50 -70 72 -147 77 -277 7 -173 32 -147 32 32 0 106 -25 195
-73 262 -61 87 -121 121 -306 179 -81 25 -118 43 -168 81 -68 51 -73 54 -73
38z"/>
<path d="M4070 3669 c-28 -22 -79 -56 -112 -76 -88 -51 -144 -106 -174 -172
-14 -31 -37 -77 -51 -103 -55 -107 -51 -214 14 -381 19 -50 40 -120 47 -154 6
-34 16 -61 21 -60 21 4 5 108 -35 224 -45 127 -60 233 -42 293 l10 35 1 -42
c1 -23 6 -45 11 -48 6 -3 10 0 10 7 2 62 24 166 44 205 30 59 92 119 172 166
52 31 154 125 154 142 0 13 -22 2 -70 -36z"/>
<path d="M4375 3661 c-7 -24 16 -83 51 -128 25 -32 117 -93 142 -93 25 0 11
20 -33 45 -60 36 -99 83 -120 144 -18 54 -30 63 -40 32z"/>
<path d="M4275 3599 c-20 -60 -68 -110 -162 -171 -67 -44 -80 -62 -35 -49 119
35 241 157 242 244 0 46 -27 32 -45 -24z"/>
<path d="M4368 3521 c-11 -49 -10 -67 3 -54 6 6 9 28 7 49 l-3 39 -7 -34z"/>
<path d="M4560 3539 c0 -5 28 -38 63 -73 45 -47 77 -69 117 -84 125 -45 169
-36 53 12 -72 29 -139 74 -187 125 -31 32 -46 39 -46 20z"/>
<path d="M4790 3485 c0 -4 19 -30 43 -58 84 -101 101 -142 123 -301 19 -133
27 -154 98 -248 70 -91 91 -154 82 -247 -3 -36 -9 -77 -13 -90 -4 -17 -2 -22
7 -19 23 7 42 79 43 158 1 88 -16 133 -87 230 -61 82 -73 112 -86 213 -16 125
-44 206 -87 257 -52 62 -123 122 -123 105z"/>
<path d="M3978 3395 c-65 -64 -90 -122 -96 -222 -4 -69 0 -94 23 -167 38 -120
32 -161 -50 -325 -35 -69 -61 -128 -58 -131 11 -11 78 81 119 166 55 113 64
181 39 304 -21 103 -28 116 -37 70 -4 -21 -6 0 -4 51 4 98 24 153 86 236 22
29 40 55 40 58 0 14 -21 1 -62 -40z"/>
<path d="M4125 3368 c-55 -28 -101 -54 -103 -58 -2 -4 -11 -6 -21 -3 -30 8
-34 -15 -6 -33 22 -14 40 -16 113 -9 118 10 127 9 188 -10 51 -16 58 -16 128
1 72 17 81 17 215 -1 137 -17 213 -15 254 6 34 19 19 37 -35 44 -29 4 -118 31
-197 61 -155 58 -190 63 -263 37 -45 -16 -50 -16 -83 0 -54 26 -81 21 -190
-35z m180 5 c33 -16 38 -16 88 0 79 25 103 22 244 -32 70 -27 137 -51 148 -54
27 -8 -58 -1 -179 14 -86 11 -109 11 -181 -4 -79 -16 -83 -16 -141 4 -51 18
-66 19 -113 10 -30 -6 -70 -11 -89 -11 -33 0 -28 4 54 44 100 50 118 53 169
29z"/>
<path d="M5433 3348 c-79 -90 -105 -187 -85 -317 4 -24 13 -46 20 -49 9 -3 12
20 12 92 0 114 20 177 80 250 36 43 53 87 33 85 -5 0 -32 -28 -60 -61z"/>
<path d="M5240 3212 c54 -107 64 -162 55 -302 -12 -178 -11 -274 4 -414 12
-107 12 -146 2 -230 -21 -172 -90 -346 -167 -427 -18 -19 -22 -29 -14 -34 21
-13 106 100 150 198 63 140 86 305 68 487 -7 69 -12 166 -11 215 1 50 3 158 5
240 2 138 1 155 -21 209 -22 55 -83 136 -102 136 -5 0 9 -35 31 -78z"/>
<path d="M4110 3142 c0 -4 7 -17 15 -29 25 -36 108 -60 235 -66 63 -4 129 -12
147 -19 27 -10 32 -18 42 -67 17 -85 118 -241 157 -241 8 0 14 1 14 3 0 2 -24
41 -54 86 -38 57 -60 105 -73 153 -13 51 -24 73 -38 78 -15 6 -11 8 20 14 46
9 106 38 125 61 21 26 6 27 -46 3 -46 -21 -62 -23 -239 -23 -189 0 -190 0
-239 28 -50 28 -66 33 -66 19z"/>
<path d="M4220 3002 c0 -91 -62 -220 -130 -271 -37 -27 -31 -47 9 -27 90 47
182 233 156 315 -11 37 -35 25 -35 -17z"/>
<path d="M3986 2904 c-25 -65 27 -164 86 -164 26 0 22 15 -8 28 -28 13 -54 66
-54 111 0 34 -15 49 -24 25z"/>
<path d="M4428 2903 c-25 -29 -45 -75 -63 -143 -26 -97 -16 -180 41 -352 45
-134 48 -150 48 -248 0 -91 -3 -113 -27 -170 -14 -35 -24 -66 -22 -69 12 -12
46 37 64 93 44 135 37 231 -31 431 -36 106 -41 131 -41 210 1 89 30 216 53
230 12 8 13 35 2 35 -5 0 -16 -8 -24 -17z"/>
<path d="M4970 2872 c0 -21 -6 -61 -14 -90 -15 -59 -3 -70 20 -17 16 39 19
145 4 145 -5 0 -10 -17 -10 -38z"/>
<path d="M4250 2863 c0 -50 -30 -134 -82 -232 -127 -240 -149 -449 -70 -655
37 -96 57 -97 26 -1 -47 147 -48 297 -4 438 12 38 46 118 76 180 63 128 87
201 82 253 -4 45 -28 59 -28 17z"/>
<path d="M5437 2823 c3 -27 21 -122 40 -213 76 -365 51 -522 -122 -783 -44
-66 -54 -73 -26 -19 40 80 84 262 62 262 -6 0 -19 -31 -31 -69 -84 -284 -278
-498 -500 -555 -30 -7 -56 -12 -58 -11 -2 2 18 30 45 63 156 194 241 501 188
680 -21 69 -38 68 -28 0 12 -80 6 -220 -13 -296 -37 -150 -148 -338 -262 -442
-45 -42 -98 -77 -162 -108 -76 -38 -90 -47 -69 -50 36 -4 126 32 200 80 55 37
72 42 124 44 69 2 158 33 230 79 55 35 191 172 221 223 10 18 24 32 30 32 16
0 99 103 145 179 20 33 51 104 70 158 31 92 33 107 34 233 0 127 -3 146 -44
310 -24 96 -47 192 -53 213 -13 53 -26 46 -21 -10z"/>
<path d="M4680 2834 c0 -3 23 -31 51 -62 27 -32 60 -74 71 -94 12 -21 26 -38
31 -38 12 0 0 37 -29 87 -31 54 -124 135 -124 107z"/>
<path d="M4888 2701 c-30 -52 -34 -71 -17 -71 8 0 59 99 59 115 0 18 -19 -2
-42 -44z"/>
<path d="M4753 2368 c2 -13 16 -67 31 -122 52 -197 30 -302 -112 -519 -65 -99
-75 -132 -70 -223 5 -102 28 -124 28 -26 0 85 21 146 78 231 153 223 173 380
82 624 -21 55 -47 80 -37 35z"/>
<path d="M4295 1798 c-11 -26 -18 -68 -18 -106 0 -56 6 -75 56 -175 32 -64 58
-132 62 -159 7 -52 19 -62 29 -24 9 36 -18 123 -69 221 -47 89 -47 90 -42 170
2 44 8 88 12 98 4 9 3 17 -3 17 -5 0 -18 -19 -27 -42z"/>
<path d="M4441 1543 c13 -57 11 -154 -5 -206 -11 -38 -12 -47 -1 -47 39 0 61
165 33 244 -20 54 -39 60 -27 9z"/>
<path d="M3346 121 c-17 -19 -36 -73 -36 -104 0 -15 7 -18 38 -15 36 3 37 4
46 55 6 39 5 57 -4 68 -16 20 -23 19 -44 -4z"/>
<path d="M4426 98 c-9 -12 -16 -39 -16 -60 0 -38 0 -38 40 -38 l41 0 -3 57
c-3 51 -6 58 -25 61 -13 2 -27 -5 -37 -20z"/>
<path d="M6252 104 c-35 -24 -23 -94 17 -94 39 0 72 67 46 94 -20 20 -35 20
-63 0z"/>
<path d="M7489 101 c-20 -16 -21 -22 -13 -52 16 -57 74 -46 90 17 12 49 -34
70 -77 35z"/>
<path d="M2935 44 c-14 -15 -25 -31 -25 -35 0 -5 23 -9 50 -9 46 0 50 2 50 25
0 14 -8 29 -19 35 -27 14 -29 13 -56 -16z"/>
<path d="M3923 48 c-5 -7 -13 -21 -16 -30 -5 -15 0 -18 34 -18 38 0 40 2 37
27 -3 31 -37 44 -55 21z"/>
<path d="M4176 25 l-16 -25 45 0 c49 0 55 8 27 33 -25 23 -37 21 -56 -8z"/>
</g>
</svg>
