<?xml version="1.0" standalone="yes"?>
<svg xmlns="http://www.w3.org/2000/svg" width="1024" height="870">
<path style="stroke:#000000; fill:none;" d="M393 152L349 178.029L319 206C312.9 196.868 326.079 180.828 332.174 174C352.64 151.072 387.63 128.337 417 119.029C429.032 115.215 441.486 113.361 454 112.17C459.798 111.618 466.345 113.119 471.985 111.567C481.951 108.826 491.526 100.644 502 97.4352C530.61 88.671 569.188 92.4907 594 110.49C601.998 116.292 606.475 123.965 613.093 130.985C619.493 137.775 627.538 142.912 632.532 151C635.837 156.354 635.067 163.962 638.553 168.576C653.307 188.101 674.863 199.824 685.138 223C687.526 228.385 694.888 238.109 692 243L691 238M476 110C484.984 114.869 497.078 113.067 507 115.1C529.46 119.701 553.521 123.394 575 132.579C583.911 136.389 598.364 140.927 603 150L599 150L601 146M514 118L472 127.141L415 152M493 172C527.325 151.757 559.283 149 598 149M604 151L636 165M641 635C643.365 653.615 645.97 678.848 656 695C660.702 679.093 651.403 652.864 645.289 638.029C644.048 635.018 641.189 633.028 640.299 629.921C635.146 611.926 636.182 590.551 634.911 572C632.594 538.206 630.015 503.884 630 470C629.995 459.905 629.787 449.057 628.83 439C628.177 432.14 626.34 424.173 630 418C598.17 381.216 582.892 331.411 543 301.04C522.881 285.722 495.129 272.502 471 265.026C459.977 261.61 444.841 262.252 435 257C442.65 247.094 457.206 240.704 467 232.739C493.631 211.081 518.774 185.841 552 174.667C563.179 170.908 574.216 168.981 586 169C589.217 169.005 595.901 168.277 597.914 171.564C602.528 179.104 578.455 186.272 574 188M615 259C623.594 265.821 631.582 273.234 640 280.245C642.418 282.26 646.326 286.561 649.891 285.553C656.231 283.761 652.958 273.969 651.37 270C645.709 255.847 633.67 244.733 622 235.45C609.667 225.639 595.38 219.475 580 216.4C570.086 214.417 557.927 214.948 549 210C571.475 194.637 608.051 181.638 635 189.721C640.981 191.516 659.246 204.504 661 194M315 204C314.957 213.829 307.051 222.515 302.809 231C294.08 248.458 291.446 266.806 294.424 286C295.423 292.437 296.031 300.412 301 305L309.453 277L334 233M319 206L317 208M631 316C613.984 293.045 592.581 268.717 565 258.695C544.108 251.104 521.629 248.228 500 243.424C491.296 241.491 480.815 240.333 473 236C478.468 229.739 490.14 227.678 498 225.629C515.245 221.133 531.834 214.489 549 210M448 219C426.041 236.7 400.792 252.672 383.211 275C378.314 281.218 366.666 293.988 371 302C389.923 288.402 409.803 262.666 434 258M469 235L468 232L473 235M695 241C708.782 257.76 709.992 278.315 710 299C710.006 315.305 712.959 331.817 709.335 348C705.798 363.792 696.392 377.709 689.247 392C680.154 410.186 668.141 431.898 647 438C653.007 469.884 649.113 501.925 652.17 534C654.574 559.232 662.492 581.479 673.753 604C677.946 612.386 681.391 624.78 687.789 631.621C702.026 646.846 725.468 655.8 744 664.309C759.435 671.395 773.6 680.114 788 689M692 243C692.474 265.942 693.05 290.707 686 313M665.159 245.346C669.108 244.063 670.507 251.522 671.101 254C673.685 264.778 673.477 276.972 673.961 288C675.438 321.681 682.295 355.512 655.996 381.999C649.554 388.487 642.305 394.087 633 395.521C628.436 396.224 618.783 393.742 620.712 387.184C621.8 383.487 627.296 381.24 629.985 378.816C635.299 374.027 639.741 367.583 642.536 361C653.807 334.454 653.753 306.965 657.424 279C658.305 272.293 657.101 247.962 665.159 245.346M363 261C335.628 294.961 310.969 347.019 326.345 391C329.169 399.079 334.063 406.859 340.04 412.985C343.225 416.25 349.89 419.562 351.227 424.09C353.556 431.982 350.28 443.508 351.17 452C352.931 468.806 362.352 483.668 366.113 500C368.628 510.924 366.393 522.992 372 533M367 302L371 303L372 302M366 303C366.077 313.596 351.179 325.361 355 335C348.669 336.035 348.133 342.524 347 348M370 305L367 306M302 306C301.15 325.786 300.051 357.809 321 369M552 307L556 309L553 312M557 309C579.264 328.266 597.843 344.974 615 369M356 329L355 333M352 333L352 334M354 336L348.039 379L352 421M695 348C694.997 371.623 683.051 395.049 667.086 411.985C661.954 417.429 650.651 430.795 642 428.582C637.218 427.358 633.345 422.335 630 419M444 351C442.487 359.149 442.132 368.249 449 374M534 355C527.135 359.392 515.394 355.62 507 357.921C498.83 360.16 491.233 364.504 484 368.799C478.316 372.175 471.816 375.543 465.001 373.786C461.434 372.867 456.404 369.527 458.931 365.228C461.946 360.1 474.758 361.42 480 360.833C498.351 358.779 515.926 344.726 534 355M365 359L356 360C369.249 344.011 390.995 359.164 407 362.465C411.41 363.374 418.15 368.115 414 373M506 354L509 357M502 355L505 358M535 355L532 358M536 357L556 373M374 359C387.93 363.54 398.857 372.99 414 373M356 360C354.883 362.304 354.557 362.407 357 362M535 360L537 359M590 361C590.001 370.817 589.224 384.347 594.363 392.985C601.723 405.355 614.46 410.217 616.866 426C619.45 442.953 613.615 460.357 610.614 477C607.506 494.242 607 511.538 607 529M354 363L350 367M417 375L423.946 398L418.015 421L415.715 446L411 476M478 392C480.796 388.376 483.266 384.526 487.015 381.789C505.555 368.253 526.047 386.507 542 395M362 393C375.861 376.122 394.912 376.038 410 391M497 392L520 395C517.803 398.938 516.978 403.608 512.956 406.258C502.959 412.843 496.029 401.577 496 393C488.579 394.112 481.727 398.194 477 404M376 395C383.111 391.205 392.826 392.953 400 396C397.904 399.063 396.566 403.076 393.775 405.58C383.966 414.38 377.459 401.705 375 394L360 402M521 395C532.552 401.159 542.117 404.175 555 401M400 396L414 404M595 397C590.514 432.309 582.708 470.055 570 503M544 404C546.551 407.935 551.68 407.248 556 407M365 407L373 414M482 414C488.47 422.469 496.297 426.91 507 427M411 415C406.107 421.927 399.199 426.053 391 428M627 417L627 419M643 430L646 437M597 435L594.089 497L617.83 658L620.83 731L624 756C631.516 748.558 632.985 735.022 634.421 725C639.214 691.523 624.214 659.634 620 627M457 465C482.006 459.046 495.008 495.758 513 507M642 466C644.388 478.862 643.467 492.928 644.039 506C645.202 532.547 646.489 560.751 650.59 587C655.516 618.522 672.603 647.229 675.831 679C677.531 695.732 674.653 711.501 671.92 728C670.556 736.231 667.627 746.898 670 755C674.467 750.397 676.502 743.345 680.205 738C686.721 728.596 694.151 719.995 697.921 709C706.801 683.106 692.71 659.119 689 634M404 470C399.461 482.382 405.303 484.055 414 491.198C418.955 495.268 423.98 500.475 431 499.492C442.306 497.91 447.707 487.103 460 487M473 470C476.412 479.127 472.872 484.982 465 490M386 508C387.591 498.76 392.513 483.879 400 478M579 486C578.911 518.354 580.138 548.786 584.575 581C585.568 588.208 582.7 599.12 585 605L587 600M359 494C363.118 511.297 356.819 527.955 355.17 545C353.86 558.536 356.925 575.113 361 588C366.28 581.138 364 568.247 364 560M457 496C462.816 500.311 468.218 504.797 475 507.547C484.942 511.578 495.699 512.739 503.985 520.185C516.909 531.799 517 548.005 517 564M412 501C403.9 508.932 393.054 513.18 385.184 521.174C375.77 530.737 369.07 548.698 371.465 562C373.792 574.93 380.963 585.501 381 599M439 504C439.557 514.712 448.292 521.147 457 526M567 504C547.486 523.69 548.632 561.529 561 585M430 508C427.193 519.71 416.678 527.531 406 532M437 517L436 522M457 517C465.501 525.501 473.271 529.981 484 535M479 523C496.786 536.553 493.213 552.433 500.094 571C506.623 588.617 519.623 596.105 513 617M403 528C392.456 536.724 387.007 549.371 389.773 563C390.927 568.686 394.404 572.947 394.545 579C394.827 591.145 387.647 605.005 380 614M399 541L420 531.468L435 532.685L447 530.083L488 543M549 532C538.294 542.796 532.488 555.769 537 571M376 541L376 549M404 543L421 541.133L435 544.072L454 542.015L482 543M521 543C534.773 558.345 530.466 575.582 530.015 594C529.188 627.741 538.623 661.813 512 689M412 557C425.927 567.588 454.497 567.881 469 558M392 559L393 568M451 566L470 597M423 569C423.737 581.576 417.664 593.311 407 600M444 581C423.442 612.467 462.254 646.884 441 677M498 581L495 596M399 583C399.881 588.642 402.417 592.615 407 596M544 584C547.338 601.716 553.971 620.924 553.971 639C553.971 660.912 544.045 679.911 530 696C529.083 692.723 529.268 690.702 533 691M426 585C425.346 600 414.965 612.159 410.355 626C404.094 644.799 407.006 661.573 413 680M361 588C358.916 606.122 353.194 622.695 358.151 641C359.862 647.315 361.945 654.679 368 658C368.135 654.431 367.332 653.305 364 655L364 655M469 588C474.799 593.081 480.566 598.079 482 606M491 598L488 605M374 605L368 651M585 605C590.973 643.606 587.519 680.957 582.845 720C580.384 740.551 573.33 769.41 582 789C589.504 784.099 597.464 778.398 607 779.478C621.336 781.103 632.493 792.476 647 794.207C653.303 794.959 662.48 793.226 665.566 786.957C667.878 782.26 666.924 776.079 667.754 771C668.636 765.598 669.954 760.504 670 755M585 609C580.346 617.588 580.278 628.789 576.547 638C569.202 656.131 557.715 671.284 544 685M397 630C385.999 645.493 384.296 663.967 390.029 682C392.118 688.572 396.472 694.32 398 701L397 702L396 701L400 703L399 704L397 703M476 633C480.934 648.165 484.887 663.36 479.302 679C473.315 695.764 458.453 706.891 462 726M693 635L690 638M360 649C326.36 687.875 275.118 698.079 235 729M501 649C507.323 679.649 493.704 702.567 477 727C496.552 735.889 518.285 707.605 528 695M369 659C371.342 676.375 381.236 690.513 395 701M539 665L531 689M432 688C422.786 706.359 439.593 719.314 441 737M529 692L531 694M401 703C412.695 714.688 429.247 724.353 436 740M445 715C446.558 723.36 447.036 730.895 444 739M449 742L476 728M336 863L335 867M752 863L751 864M445 864L445 867M394 868L395 868M419 869L421 869"/>
</svg>
